{
    "asset": {
        "version": "2.0",
        "generator": "Open Asset Import Library (assimp v5.0.5eb040c7)"
    },
    "accessors": [
        {
            "bufferView": 0,
            "byteOffset": 0,
            "componentType": 5126,
            "count": 5955,
            "type": "VEC3",
            "max": [
                99.9620361328125,
                45.0,
                99.84815979003906
            ],
            "min": [
                -99.9620361328125,
                -110.0,
                -100.0
            ]
        },
        {
            "bufferView": 1,
            "byteOffset": 0,
            "componentType": 5126,
            "count": 5955,
            "type": "VEC3",
            "max": [
                1.0,
                1.0,
                1.0
            ],
            "min": [
                -1.0,
                -1.0,
                -1.0
            ]
        },
        {
            "bufferView": 2,
            "byteOffset": 0,
            "componentType": 5126,
            "count": 5955,
            "type": "VEC2",
            "max": [
                9.225981712341309,
                32.96708679199219
            ],
            "min": [
                -19.600000381469728,
                -31.13726806640625
            ]
        },
        {
            "bufferView": 3,
            "byteOffset": 0,
            "componentType": 5125,
            "count": 27204,
            "type": "SCALAR",
            "max": [
                5954
            ],
            "min": [
                0
            ]
        }
    ],
    "buffers": [
        {
            "byteLength": 299376,
            "uri": "result.bin"
        }
    ],
    "bufferViews": [
        {
            "buffer": 0,
            "byteOffset": 0,
            "byteLength": 71460,
            "target": 34962
        },
        {
            "buffer": 0,
            "byteOffset": 71460,
            "byteLength": 71460,
            "target": 34962
        },
        {
            "buffer": 0,
            "byteOffset": 142920,
            "byteLength": 47640,
            "target": 34962
        },
        {
            "buffer": 0,
            "byteOffset": 190560,
            "byteLength": 108816,
            "target": 34963
        }
    ],
    "materials": [
        {
            "name": "DefaultMaterial",
            "pbrMetallicRoughness": {
                "baseColorFactor": [
                    0.6000000238418579,
                    0.6000000238418579,
                    0.6000000238418579,
                    1.0
                ],
                "metallicFactor": 0.0
            }
        },
        {
            "name": "191,191,191",
            "pbrMetallicRoughness": {
                "baseColorFactor": [
                    0.6000000238418579,
                    0.6000000238418579,
                    0.6000000238418579,
                    1.0
                ],
                "metallicFactor": 0.0
            }
        }
    ],
    "meshes": [
        {
            "name": "Solid1",
            "primitives": [
                {
                    "mode": 4,
                    "material": 1,
                    "indices": 3,
                    "attributes": {
                        "POSITION": 0,
                        "NORMAL": 1,
                        "TEXCOORD_0": 2
                    }
                }
            ]
        }
    ],
    "nodes": [
        {
            "name": "input.obj",
            "children": [
                1
            ]
        },
        {
            "name": "Solid1",
            "mesh": 0
        }
    ],
    "scenes": [
        {
            "nodes": [
                0
            ]
        }
    ],
    "scene": 0
}